<svg version="1.1" xmlns="http://www.w3.org/2000/svg" xmlns:xlink="http://www.w3.org/1999/xlink" width="507.09502" height="380.68416" viewBox="0,0,507.09502,380.68416"><defs><radialGradient cx="237.94797" cy="180.65975" r="251.35656" gradientUnits="userSpaceOnUse" id="color-1"><stop offset="0" stop-color="#ff9400"/><stop offset="1" stop-color="#0096bb"/></radialGradient></defs><g transform="translate(14.40859,9.68233)"><g data-paper-data="{&quot;isPaintingLayer&quot;:true}" fill-rule="nonzero" stroke-width="2" stroke-linecap="butt" stroke-linejoin="miter" stroke-miterlimit="10" stroke-dasharray="" stroke-dashoffset="0" style="mix-blend-mode: normal"><path d="M-13.40859,370.00183v-378.68416h502.71312v378.68416z" fill="url(#color-1)" stroke="#000000"/><path d="M-9.04751,365.38372v-76.5285h500.73394v76.52851z" fill="#000000" stroke="#000000"/><path d="M247.58688,240.0353v-15.83348h122.04977v15.83348z" fill="#000000" stroke="#000000"/><path d="M94.91176,179.06245v-15.83348h122.04978v15.83348z" fill="#000000" stroke="#000000"/><path d="M246.37149,131.28417v-15.83348h122.04978v15.83348z" fill="#000000" stroke="#000000"/><path d="M370.29638,286.87602v-221.66878h114.79276v221.66878z" fill="#000000" stroke="#000000"/><path d="M-10.36697,287.53576v-222.98824h104.2371v222.98824z" fill="#000000" stroke="#000000"/><path d="M246.26742,135.13846v-2.63891h122.7095v2.63891z" fill="#ff9400" stroke="#ffa000"/><path d="M94.91176,182.36108v-2.63891h122.70951v2.63891z" fill="#ff9400" stroke="#ffa000"/><path d="M247.69095,243.43801v-2.63891h121.39005v2.63891z" fill="#ff9400" stroke="#ffa000"/><path d="M364.8125,288v-42h4.375v42z" fill="#ffffff" stroke="#ffffff"/><path d="M365,259v-1h1v1z" fill="#ffffff" stroke="#ffffff"/><path d="M362.89062,221v-84h5.21875v84z" fill="#ffffff" stroke="#ffffff"/><path d="M362.89063,114v-48h5.21875v48z" fill="#ffffff" stroke="#ffffff"/></g></g></svg>