<svg version="1.1" xmlns="http://www.w3.org/2000/svg" xmlns:xlink="http://www.w3.org/1999/xlink" width="516.88268" height="393.72579" viewBox="0,0,516.88268,393.72579"><defs><radialGradient cx="247.74662" cy="177.28462" r="247.89819" gradientUnits="userSpaceOnUse" id="color-1"><stop offset="0" stop-color="#ff9400"/><stop offset="1" stop-color="#0096bb"/></radialGradient></defs><g transform="translate(20.23788,19.57828)"><g data-paper-data="{&quot;isPaintingLayer&quot;:true}" fill-rule="nonzero" stroke-width="2" stroke-linecap="butt" stroke-linejoin="miter" stroke-miterlimit="10" stroke-dasharray="" stroke-dashoffset="0" style="mix-blend-mode: normal"><path d="M-0.15157,373.14751v-391.72579h495.79638v391.72579z" fill="url(#color-1)" stroke="#000000"/><path d="M-19.23787,361.29331v-289.83833h69.28406v289.83833z" fill="#000000" stroke="#000000"/><path d="M51.582,366.2933v-237.87528h57.73672v237.87528z" fill="#000000" stroke="#000000"/><path d="M109.69978,364.3649v-188.22171h57.73672v188.22171z" fill="#000000" stroke="#000000"/><path d="M168.9723,364.74596v-143.18706h57.73672v143.18706z" fill="#000000" stroke="#000000"/><path d="M227.09008,363.97228v-143.18706h57.73672v143.18706z" fill="#000000" stroke="#000000"/><path d="M285.20786,362.04388v-182.44803h57.73672v182.44803z" fill="#000000" stroke="#000000"/><path d="M344.48038,361.27021v-235.56581h57.73672v235.56581z" fill="#000000" stroke="#000000"/><path d="M403.77599,359.36489v-286.37413h81.98614v286.37413z" fill="#000000" stroke="#000000"/><path d="M281.9344,220.02324v-41h3.5v41z" fill="#ffffff" stroke="#ffffff"/><path d="M338.9344,177.02324v-51h3.5v51z" fill="#ffffff" stroke="#ffffff"/><path d="M398.9344,123.02324v-50h3.5v50z" fill="#ffffff" stroke="#ffffff"/></g></g></svg>