<svg version="1.1" xmlns="http://www.w3.org/2000/svg" xmlns:xlink="http://www.w3.org/1999/xlink" width="92" height="114.18183" viewBox="0,0,92,114.18183"><g transform="translate(-198.45923,-33.57636)"><g data-paper-data="{&quot;isPaintingLayer&quot;:true}" fill-rule="nonzero" stroke="#000000" stroke-width="2" stroke-linejoin="miter" stroke-miterlimit="10" stroke-dasharray="" stroke-dashoffset="0" style="mix-blend-mode: normal"><path d="M199.45923,117.57636v-83h90v83z" fill="#af66ff" stroke-linecap="butt"/><path d="M214.99619,146.75819v-28h12v28z" fill="#af66ff" stroke-linecap="butt"/><path d="M262.99618,146.75819v-28h12v28z" fill="#af66ff" stroke-linecap="butt"/><path d="M237.99619,62.25819c0,5.79899 -5.37258,10.5 -12,10.5c-6.62742,0 -12,-4.70101 -12,-10.5c0,-5.79899 5.37258,-10.5 12,-10.5c6.62742,0 12,4.70101 12,10.5z" fill="#ff6666" stroke-linecap="butt"/><path d="M276.99618,62.25819c0,5.79899 -5.37259,10.5 -12,10.5c-6.62742,0 -12,-4.70101 -12,-10.5c0,-5.79899 5.37258,-10.5 12,-10.5c6.62741,0 12,4.70101 12,10.5z" fill="#ff6666" stroke-linecap="butt"/><path d="M213.99619,95.20757h62" fill="none" stroke-linecap="round"/></g></g></svg>